{
date = "2013-05-07 17:01:52 +0000";
designer = "Shinji Pons";
designerURL = www.shinjipons.com;
familyName = "Modulo 24";
fontMaster = (
{
alignmentZones = (
"{128, 129}",
"{128, 129}",
"{128, 129}",
"{0, -2}",
"{0, -2}"
);
ascender = 128;
capHeight = 128;
customParameters = (
{
name = familyName;
value = "Modulo 24";
}
);
descender = 0;
guideLines = (
{
position = "{-25, 52}";
},
{
angle = 90;
position = "{84, 139}";
},
{
angle = 90;
position = "{60, 135}";
},
{
position = "{-18, 76}";
},
{
angle = 90;
position = "{32, 143}";
},
{
angle = 270;
position = "{112, 123}";
},
{
position = "{-22, 104}";
},
{
position = "{-20, 24}";
},
{
angle = 90;
position = "{136, -22}";
},
{
angle = 90;
position = "{8, -30}";
},
{
angle = 90;
position = "{72, -13.928646872190669}";
}
);
horizontalStems = (
24
);
id = "940E2F63-624A-4C3D-A909-721782B4CF41";
verticalStems = (
24
);
weightValue = 24;
widthValue = 128;
xHeight = 128;
}
);
glyphs = (
{
glyphname = A;
lastChange = "2013-06-29 22:33:10 +0200";
layers = (
{
layerId = "940E2F63-624A-4C3D-A909-721782B4CF41";
name = Regular;
paths = (
{
closed = 1;
nodes = (
"20 128 LINE SMOOTH",
"13.373 128 OFFCURVE",
"8 122.627 OFFCURVE",
"8 116 CURVE SMOOTH",
"8 109.373 OFFCURVE",
"13.373 104 OFFCURVE",
"20 104 CURVE SMOOTH",
"112 104 LINE",
"112 24 LINE",
"32 24 LINE",
"32 52 LINE",
"71.9988 52 LINE SMOOTH",
"78.627 52 OFFCURVE",
"84 57.373 OFFCURVE",
"84 64 CURVE SMOOTH",
"84 70.627 OFFCURVE",
"78.627 76 OFFCURVE",
"72 76 CURVE SMOOTH",
"20 76 LINE SMOOTH",
"13.373 76 OFFCURVE",
"8 70.627 OFFCURVE",
"8 64 CURVE SMOOTH",
"8 12 LINE SMOOTH",
"8 5.373 OFFCURVE",
"13.373 0 OFFCURVE",
"20 0 CURVE SMOOTH",
"124 0 LINE SMOOTH",
"130.627 0 OFFCURVE",
"136 5.373 OFFCURVE",
"136 12 CURVE SMOOTH",
"136 116 LINE SMOOTH",
"136 122.627 OFFCURVE",
"130.627 128 OFFCURVE",
"124 128 CURVE SMOOTH"
);
}
);
width = 144;
}
);
unicode = 0041;
},
{
glyphname = B;
lastChange = "2013-06-29 22:37:32 +0200";
layers = (
{
layerId = "940E2F63-624A-4C3D-A909-721782B4CF41";
name = Regular;
paths = (
{
closed = 1;
nodes = (
"136 116 LINE SMOOTH",
"136 122.627 OFFCURVE",
"130.627 128 OFFCURVE",
"124 128 CURVE SMOOTH",
"20 128 LINE SMOOTH",
"13.373 128 OFFCURVE",
"8 122.627 OFFCURVE",
"8 116 CURVE SMOOTH",
"8 12 LINE SMOOTH",
"8 5.373 OFFCURVE",
"13.373 0 OFFCURVE",
"20 0 CURVE SMOOTH",
"26.627 0 OFFCURVE",
"32 5.373 OFFCURVE",
"32 12 CURVE SMOOTH",
"32 104 LINE",
"112 104 LINE",
"112 76 LINE",
"72 76 LINE SMOOTH",
"65.373 76 OFFCURVE",
"60 70.627 OFFCURVE",
"60 64 CURVE SMOOTH",
"60 57.373 OFFCURVE",
"65.373 52 OFFCURVE",
"72 52 CURVE SMOOTH",
"112 52 LINE",
"112 24 LINE",
"72 24 LINE SMOOTH",
"65.373 24 OFFCURVE",
"60 18.627 OFFCURVE",
"60 12 CURVE SMOOTH",
"60 5.373 OFFCURVE",
"65.373 0 OFFCURVE",
"72 0 CURVE SMOOTH",
"124 0 LINE SMOOTH",
"130.627 0 OFFCURVE",
"136 5.373 OFFCURVE",
"136 12 CURVE SMOOTH"
);
}
);
width = 144;
}
);
unicode = 0042;
},
{
glyphname = C;
lastChange = "2013-06-29 22:38:38 +0200";
layers = (
{
layerId = "940E2F63-624A-4C3D-A909-721782B4CF41";
name = Regular;
paths = (
{
closed = 1;
nodes = (
"32 24 LINE",
"32 104 LINE",
"124 104 LINE SMOOTH",
"130.627 104 OFFCURVE",
"136 109.373 OFFCURVE",
"136 116 CURVE SMOOTH",
"136 122.627 OFFCURVE",
"130.627 128 OFFCURVE",
"124 128 CURVE SMOOTH",
"20 128 LINE SMOOTH",
"13.373 128 OFFCURVE",
"8 122.627 OFFCURVE",
"8 116 CURVE SMOOTH",
"8 12 LINE SMOOTH",
"8 5.373 OFFCURVE",
"13.373 0 OFFCURVE",
"20 0 CURVE SMOOTH",
"124 0 LINE SMOOTH",
"130.627 0 OFFCURVE",
"136 5.373 OFFCURVE",
"136 12 CURVE SMOOTH",
"136 18.627 OFFCURVE",
"130.627 24 OFFCURVE",
"124 24 CURVE SMOOTH"
);
}
);
width = 144;
}
);
unicode = 0043;
},
{
glyphname = D;
lastChange = "2013-06-29 20:44:28 +0200";
layers = (
{
layerId = "940E2F63-624A-4C3D-A909-721782B4CF41";
name = Regular;
paths = (
{
closed = 1;
nodes = (
"136 116 LINE SMOOTH",
"136 122.627 OFFCURVE",
"130.627 128 OFFCURVE",
"124 128 CURVE SMOOTH",
"20 128 LINE SMOOTH",
"13.373 128 OFFCURVE",
"8 122.627 OFFCURVE",
"8 116 CURVE SMOOTH",
"8 109.373 OFFCURVE",
"13.373 104 OFFCURVE",
"20 104 CURVE SMOOTH",
"112 104 LINE",
"112 24 LINE",
"32 24 LINE",
"32 64 LINE SMOOTH",
"32 70.627 OFFCURVE",
"26.627 76 OFFCURVE",
"20 76 CURVE SMOOTH",
"13.373 76 OFFCURVE",
"8 70.627 OFFCURVE",
"8 64 CURVE SMOOTH",
"8 12 LINE SMOOTH",
"8 5.373 OFFCURVE",
"13.373 0 OFFCURVE",
"20 0 CURVE SMOOTH",
"124 0 LINE SMOOTH",
"130.627 0 OFFCURVE",
"136 5.373 OFFCURVE",
"136 12 CURVE SMOOTH"
);
}
);
width = 144;
}
);
unicode = 0044;
},
{
glyphname = E;
lastChange = "2013-06-29 20:45:39 +0200";
layers = (
{
layerId = "940E2F63-624A-4C3D-A909-721782B4CF41";
name = Regular;
paths = (
{
closed = 1;
nodes = (
"124 52 LINE SMOOTH",
"130.627 52 OFFCURVE",
"136 57.373 OFFCURVE",
"136 64 CURVE SMOOTH",
"136 116 LINE SMOOTH",
"136 122.627 OFFCURVE",
"130.627 128 OFFCURVE",
"124 128 CURVE SMOOTH",
"72 128 LINE SMOOTH",
"65.373 128 OFFCURVE",
"60 122.627 OFFCURVE",
"60 116 CURVE SMOOTH",
"60 109.373 OFFCURVE",
"65.373 104 OFFCURVE",
"72 104 CURVE SMOOTH",
"112 104 LINE",
"112 76 LINE",
"32 76 LINE",
"32 116 LINE SMOOTH",
"32 122.627 OFFCURVE",
"26.627 128 OFFCURVE",
"20 128 CURVE SMOOTH",
"13.373 128 OFFCURVE",
"8 122.627 OFFCURVE",
"8 116 CURVE SMOOTH",
"8 12 LINE SMOOTH",
"8 5.373 OFFCURVE",
"13.373 0 OFFCURVE",
"20 0 CURVE SMOOTH",
"124 0 LINE SMOOTH",
"130.627 0 OFFCURVE",
"136 5.373 OFFCURVE",
"136 12 CURVE SMOOTH",
"136 18.627 OFFCURVE",
"130.627 24 OFFCURVE",
"124 24 CURVE SMOOTH",
"32 24 LINE",
"32 52 LINE"
);
}
);
width = 144;
}
);
unicode = 0045;
},
{
glyphname = F;
lastChange = "2013-06-29 20:46:28 +0200";
layers = (
{
layerId = "940E2F63-624A-4C3D-A909-721782B4CF41";
name = Regular;
paths = (
{
closed = 1;
nodes = (
"32 76 LINE",
"32 104 LINE",
"124 104 LINE SMOOTH",
"130.627 104 OFFCURVE",
"136 109.373 OFFCURVE",
"136 116 CURVE SMOOTH",
"136 122.627 OFFCURVE",
"130.627 128 OFFCURVE",
"124 128 CURVE SMOOTH",
"20 128 LINE SMOOTH",
"13.373 128 OFFCURVE",
"8 122.627 OFFCURVE",
"8 116 CURVE SMOOTH",
"8 12 LINE SMOOTH",
"8 5.373 OFFCURVE",
"13.373 0 OFFCURVE",
"20 0 CURVE SMOOTH",
"26.627 0 OFFCURVE",
"32 5.373 OFFCURVE",
"32 12 CURVE SMOOTH",
"32 52 LINE",
"124 52 LINE SMOOTH",
"130.627 52 OFFCURVE",
"136 57.373 OFFCURVE",
"136 64 CURVE SMOOTH",
"136 70.627 OFFCURVE",
"130.627 76 OFFCURVE",
"124 76 CURVE SMOOTH"
);
}
);
width = 144;
}
);
unicode = 0046;
},
{
glyphname = H;
lastChange = "2013-06-29 20:48:06 +0200";
layers = (
{
layerId = "940E2F63-624A-4C3D-A909-721782B4CF41";
name = Regular;
paths = (
{
closed = 1;
nodes = (
"112 76 LINE",
"32 76 LINE",
"32 116 LINE SMOOTH",
"32 122.627 OFFCURVE",
"26.627 128 OFFCURVE",
"20 128 CURVE SMOOTH",
"13.373 128 OFFCURVE",
"8 122.627 OFFCURVE",
"8 116 CURVE SMOOTH",
"8 12 LINE SMOOTH",
"8 5.373 OFFCURVE",
"13.373 0 OFFCURVE",
"20 0 CURVE SMOOTH",
"26.627 0 OFFCURVE",
"32 5.373 OFFCURVE",
"32 12 CURVE SMOOTH",
"32 52 LINE",
"112 52 LINE",
"112 12 LINE SMOOTH",
"112 5.373 OFFCURVE",
"117.373 0 OFFCURVE",
"124 0 CURVE SMOOTH",
"130.627 0 OFFCURVE",
"136 5.373 OFFCURVE",
"136 12 CURVE SMOOTH",
"136 116 LINE SMOOTH",
"136 122.627 OFFCURVE",
"130.627 128 OFFCURVE",
"124 128 CURVE SMOOTH",
"117.373 128 OFFCURVE",
"112 122.627 OFFCURVE",
"112 116 CURVE SMOOTH"
);
}
);
width = 144;
}
);
unicode = 0048;
},
{
glyphname = J;
lastChange = "2013-06-29 20:48:54 +0200";
layers = (
{
layerId = "940E2F63-624A-4C3D-A909-721782B4CF41";
name = Regular;
paths = (
{
closed = 1;
nodes = (
"72 128 LINE SMOOTH",
"65.373 128 OFFCURVE",
"60 122.627 OFFCURVE",
"60 116 CURVE SMOOTH",
"60 109.373 OFFCURVE",
"65.373 104 OFFCURVE",
"72 104 CURVE SMOOTH",
"112 104 LINE",
"112 24 LINE",
"20 24 LINE SMOOTH",
"13.373 24 OFFCURVE",
"8 18.627 OFFCURVE",
"8 12 CURVE SMOOTH",
"8 5.373 OFFCURVE",
"13.373 0 OFFCURVE",
"20 0 CURVE SMOOTH",
"124 0 LINE SMOOTH",
"130.627 0 OFFCURVE",
"136 5.373 OFFCURVE",
"136 12 CURVE SMOOTH",
"136 116 LINE SMOOTH",
"136 122.627 OFFCURVE",
"130.627 128 OFFCURVE",
"124 128 CURVE SMOOTH"
);
}
);
width = 144;
}
);
unicode = 004A;
},
{
glyphname = K;
lastChange = "2013-06-29 20:50:31 +0200";
layers = (
{
layerId = "940E2F63-624A-4C3D-A909-721782B4CF41";
name = Regular;
paths = (
{
closed = 1;
nodes = (
"84 76 LINE",
"84 104 LINE",
"124 104 LINE SMOOTH",
"130.627 104 OFFCURVE",
"136 109.373 OFFCURVE",
"136 116 CURVE SMOOTH",
"136 122.627 OFFCURVE",
"130.627 128 OFFCURVE",
"124 128 CURVE SMOOTH",
"72 128 LINE SMOOTH",
"65.373 128 OFFCURVE",
"60 122.627 OFFCURVE",
"60 116 CURVE SMOOTH",
"60 76 LINE",
"32 76 LINE",
"32 116 LINE SMOOTH",
"32 122.627 OFFCURVE",
"26.627 128 OFFCURVE",
"20 128 CURVE SMOOTH",
"13.373 128 OFFCURVE",
"8 122.627 OFFCURVE",
"8 116 CURVE SMOOTH",
"8 12 LINE SMOOTH",
"8 5.373 OFFCURVE",
"13.373 0 OFFCURVE",
"20 0 CURVE SMOOTH",
"26.627 0 OFFCURVE",
"32 5.373 OFFCURVE",
"32 12 CURVE SMOOTH",
"32 52 LINE",
"112 52 LINE",
"112 12 LINE SMOOTH",
"112 5.373 OFFCURVE",
"117.373 0 OFFCURVE",
"124 0 CURVE SMOOTH",
"130.627 0 OFFCURVE",
"136 5.373 OFFCURVE",
"136 12 CURVE SMOOTH",
"136 64 LINE SMOOTH",
"136 70.627 OFFCURVE",
"130.627 76 OFFCURVE",
"124 76 CURVE SMOOTH"
);
}
);
width = 144;
}
);
unicode = 004B;
},
{
glyphname = L;
lastChange = "2013-06-29 20:51:17 +0200";
layers = (
{
layerId = "940E2F63-624A-4C3D-A909-721782B4CF41";
name = Regular;
paths = (
{
closed = 1;
nodes = (
"32 24 LINE",
"32 116 LINE SMOOTH",
"32 122.627 OFFCURVE",
"26.627 128 OFFCURVE",
"20 128 CURVE SMOOTH",
"13.373 128 OFFCURVE",
"8 122.627 OFFCURVE",
"8 116 CURVE SMOOTH",
"8 12 LINE SMOOTH",
"8 5.373 OFFCURVE",
"13.373 0 OFFCURVE",
"20 0 CURVE SMOOTH",
"124 0 LINE SMOOTH",
"130.627 0 OFFCURVE",
"136 5.373 OFFCURVE",
"136 12 CURVE SMOOTH",
"136 18.627 OFFCURVE",
"130.627 24 OFFCURVE",
"124 24 CURVE SMOOTH"
);
}
);
width = 144;
}
);
unicode = 004C;
},
{
glyphname = M;
lastChange = "2013-06-29 20:52:07 +0200";
layers = (
{
layerId = "940E2F63-624A-4C3D-A909-721782B4CF41";
name = Regular;
paths = (
{
closed = 1;
nodes = (
"20 128 LINE SMOOTH",
"13.373 128 OFFCURVE",
"8 122.627 OFFCURVE",
"8 116 CURVE SMOOTH",
"8 12 LINE SMOOTH",
"8 5.373 OFFCURVE",
"13.373 0 OFFCURVE",
"20 0 CURVE SMOOTH",
"26.627 0 OFFCURVE",
"32 5.373 OFFCURVE",
"32 12 CURVE SMOOTH",
"32 104 LINE",
"60 104 LINE",
"60 12 LINE SMOOTH",
"60 5.373 OFFCURVE",
"65.373 0 OFFCURVE",
"72 0 CURVE SMOOTH",
"78.627 0 OFFCURVE",
"84 5.373 OFFCURVE",
"84 12 CURVE SMOOTH",
"84 104 LINE",
"112 104 LINE",
"112 12 LINE SMOOTH",
"112 5.373 OFFCURVE",
"117.373 0 OFFCURVE",
"124 0 CURVE SMOOTH",
"130.627 0 OFFCURVE",
"136 5.373 OFFCURVE",
"136 12 CURVE SMOOTH",
"136 116 LINE SMOOTH",
"136 122.627 OFFCURVE",
"130.627 128 OFFCURVE",
"124 128 CURVE SMOOTH"
);
}
);
width = 144;
}
);
unicode = 004D;
},
{
glyphname = N;
lastChange = "2013-06-29 20:53:07 +0200";
layers = (
{
layerId = "940E2F63-624A-4C3D-A909-721782B4CF41";
name = Regular;
paths = (
{
closed = 1;
nodes = (
"112 24 LINE",
"84 24 LINE",
"84 116 LINE SMOOTH",
"84 122.627 OFFCURVE",
"78.627 128 OFFCURVE",
"72 128 CURVE SMOOTH",
"20 128 LINE SMOOTH",
"13.373 128 OFFCURVE",
"8 122.627 OFFCURVE",
"8 116 CURVE SMOOTH",
"8 12 LINE SMOOTH",
"8 5.373 OFFCURVE",
"13.373 0 OFFCURVE",
"20 0 CURVE SMOOTH",
"26.627 0 OFFCURVE",
"32 5.373 OFFCURVE",
"32 12 CURVE SMOOTH",
"32 104 LINE",
"60 104 LINE",
"60 12 LINE SMOOTH",
"60 5.373 OFFCURVE",
"65.373 0 OFFCURVE",
"72 0 CURVE SMOOTH",
"124 0 LINE SMOOTH",
"130.627 0 OFFCURVE",
"136 5.373 OFFCURVE",
"136 12 CURVE SMOOTH",
"136 116 LINE SMOOTH",
"136 122.627 OFFCURVE",
"130.627 128 OFFCURVE",
"124 128 CURVE SMOOTH",
"117.373 128 OFFCURVE",
"112 122.627 OFFCURVE",
"112 116 CURVE SMOOTH"
);
}
);
width = 144;
}
);
unicode = 004E;
},
{
glyphname = O;
lastChange = "2013-06-29 21:02:23 +0200";
layers = (
{
layerId = "940E2F63-624A-4C3D-A909-721782B4CF41";
name = Regular;
paths = (
{
closed = 1;
nodes = (
"20 128 LINE SMOOTH",
"13.373 128 OFFCURVE",
"8 122.627 OFFCURVE",
"8 116 CURVE SMOOTH",
"8 12 LINE SMOOTH",
"8 5.373 OFFCURVE",
"13.373 0 OFFCURVE",
"20 0 CURVE SMOOTH",
"124 0 LINE SMOOTH",
"130.627 0 OFFCURVE",
"136 5.373 OFFCURVE",
"136 12 CURVE SMOOTH",
"136 116 LINE SMOOTH",
"136 122.627 OFFCURVE",
"130.627 128 OFFCURVE",
"124 128 CURVE SMOOTH"
);
},
{
closed = 1;
nodes = (
"32 104 LINE",
"112 104 LINE",
"112 24 LINE",
"32 24 LINE"
);
}
);
width = 144;
}
);
unicode = 004F;
},
{
glyphname = P;
lastChange = "2013-06-29 21:05:28 +0200";
layers = (
{
layerId = "940E2F63-624A-4C3D-A909-721782B4CF41";
name = Regular;
paths = (
{
closed = 1;
nodes = (
"20 128 LINE SMOOTH",
"13.373 128 OFFCURVE",
"8 122.627 OFFCURVE",
"8 116 CURVE SMOOTH",
"8 12 LINE SMOOTH",
"8 5.373 OFFCURVE",
"13.373 0 OFFCURVE",
"20 0 CURVE SMOOTH",
"26.627 0 OFFCURVE",
"32 5.373 OFFCURVE",
"32 12 CURVE SMOOTH",
"32 104 LINE",
"112 104 LINE",
"112 76 LINE",
"72 76 LINE SMOOTH",
"65.373 76 OFFCURVE",
"60 70.627 OFFCURVE",
"60 64 CURVE SMOOTH",
"60 57.373 OFFCURVE",
"65.373 52 OFFCURVE",
"72 52 CURVE SMOOTH",
"124 52 LINE SMOOTH",
"130.627 52 OFFCURVE",
"136 57.373 OFFCURVE",
"136 64 CURVE SMOOTH",
"136 116 LINE SMOOTH",
"136 122.627 OFFCURVE",
"130.627 128 OFFCURVE",
"124 128 CURVE SMOOTH"
);
}
);
width = 144;
}
);
unicode = 0050;
},
{
glyphname = Q;
lastChange = "2013-09-11 17:25:44 +0200";
layers = (
{
layerId = "940E2F63-624A-4C3D-A909-721782B4CF41";
name = Regular;
paths = (
{
closed = 1;
nodes = (
"20 128 LINE SMOOTH",
"13.373 128 OFFCURVE",
"8 122.627 OFFCURVE",
"8 116 CURVE SMOOTH",
"8 12 LINE SMOOTH",
"8 5.373 OFFCURVE",
"13.373 0 OFFCURVE",
"20 0 CURVE SMOOTH",
"124 0 LINE SMOOTH",
"130.627 0 OFFCURVE",
"136 5.373 OFFCURVE",
"136 12 CURVE SMOOTH",
"136 116 LINE SMOOTH",
"136 122.627 OFFCURVE",
"130.627 128 OFFCURVE",
"124 128 CURVE SMOOTH"
);
},
{
closed = 1;
nodes = (
"84 64 LINE SMOOTH",
"84 70.627 OFFCURVE",
"78.627 76 OFFCURVE",
"72 76 CURVE SMOOTH",
"65.373 76 OFFCURVE",
"60 70.627 OFFCURVE",
"60 64 CURVE SMOOTH",
"60 24 LINE",
"32 24 LINE",
"32 104 LINE",
"112 104 LINE",
"112 24 LINE",
"84 24 LINE"
);
}
);
width = 144;
}
);
unicode = 0051;
},
{
glyphname = R;
lastChange = "2013-09-11 17:29:35 +0200";
layers = (
{
layerId = "940E2F63-624A-4C3D-A909-721782B4CF41";
name = Regular;
paths = (
{
closed = 1;
nodes = (
"124 52 LINE SMOOTH",
"130.627 52 OFFCURVE",
"136 57.373 OFFCURVE",
"136 64 CURVE SMOOTH",
"136 116 LINE SMOOTH",
"136 122.627 OFFCURVE",
"130.627 128 OFFCURVE",
"124 128 CURVE SMOOTH",
"20 128 LINE SMOOTH",
"13.373 128 OFFCURVE",
"8 122.627 OFFCURVE",
"8 116 CURVE SMOOTH",
"8 12 LINE SMOOTH",
"8 5.373 OFFCURVE",
"13.373 0 OFFCURVE",
"20 0 CURVE SMOOTH",
"26.627 0 OFFCURVE",
"32 5.373 OFFCURVE",
"32 12 CURVE SMOOTH",
"32 104 LINE",
"112 104 LINE",
"112 76 LINE",
"72 76 LINE SMOOTH",
"65.373 76 OFFCURVE",
"60 70.627 OFFCURVE",
"60 64 CURVE SMOOTH",
"60 12 LINE SMOOTH",
"60 5.373 OFFCURVE",
"65.373 0 OFFCURVE",
"72 0 CURVE SMOOTH",
"124 0 LINE SMOOTH",
"130.627 0 OFFCURVE",
"136 5.373 OFFCURVE",
"136 12 CURVE SMOOTH",
"136 18.627 OFFCURVE",
"130.627 24 OFFCURVE",
"124 24 CURVE SMOOTH",
"84 24 LINE",
"84 52 LINE"
);
}
);
width = 144;
}
);
unicode = 0052;
},
{
glyphname = T;
lastChange = "2013-09-11 17:35:45 +0200";
layers = (
{
layerId = "940E2F63-624A-4C3D-A909-721782B4CF41";
name = Regular;
paths = (
{
closed = 1;
nodes = (
"20 128 LINE SMOOTH",
"13.373 128 OFFCURVE",
"8 122.627 OFFCURVE",
"8 116 CURVE SMOOTH",
"8 109.373 OFFCURVE",
"13.373 104 OFFCURVE",
"20 104 CURVE SMOOTH",
"60 104 LINE",
"60 12 LINE SMOOTH",
"60 5.373 OFFCURVE",
"65.373 0 OFFCURVE",
"72 0 CURVE SMOOTH",
"78.627 0 OFFCURVE",
"84 5.373 OFFCURVE",
"84 12 CURVE SMOOTH",
"84 104 LINE",
"124 104 LINE SMOOTH",
"130.627 104 OFFCURVE",
"136 109.373 OFFCURVE",
"136 116 CURVE SMOOTH",
"136 122.627 OFFCURVE",
"130.627 128 OFFCURVE",
"124 128 CURVE SMOOTH"
);
}
);
width = 144;
}
);
unicode = 0054;
},
{
glyphname = V;
lastChange = "2013-09-11 17:38:07 +0200";
layers = (
{
layerId = "940E2F63-624A-4C3D-A909-721782B4CF41";
name = Regular;
paths = (
{
closed = 1;
nodes = (
"136 116 LINE",
"136 122.627 OFFCURVE",
"130.627 128 OFFCURVE",
"124 128 CURVE SMOOTH",
"117.373 128 OFFCURVE",
"112 122.627 OFFCURVE",
"112 116 CURVE SMOOTH",
"112 76 LINE",
"72 76 LINE SMOOTH",
"65.373 76 OFFCURVE",
"60 70.627 OFFCURVE",
"60 64 CURVE SMOOTH",
"60 24 LINE",
"32 24 LINE",
"32 116 LINE SMOOTH",
"32 122.627 OFFCURVE",
"26.627 128 OFFCURVE",
"20 128 CURVE SMOOTH",
"13.373 128 OFFCURVE",
"8 122.627 OFFCURVE",
"8 116 CURVE SMOOTH",
"8 12 LINE SMOOTH",
"8 5.373 OFFCURVE",
"13.373 0 OFFCURVE",
"20 0 CURVE SMOOTH",
"72 0 LINE SMOOTH",
"78.627 0 OFFCURVE",
"84 5.373 OFFCURVE",
"84 12 CURVE SMOOTH",
"84 52 LINE",
"123.999 52 LINE SMOOTH",
"130.627 52 OFFCURVE",
"136 57.373 OFFCURVE",
"136 64 CURVE"
);
}
);
width = 144;
}
);
unicode = 0056;
},
{
glyphname = X;
lastChange = "2013-09-11 17:43:21 +0200";
layers = (
{
layerId = "940E2F63-624A-4C3D-A909-721782B4CF41";
name = Regular;
paths = (
{
closed = 1;
nodes = (
"112 24 LINE",
"84 24 LINE",
"84 104 LINE",
"124 104 LINE SMOOTH",
"130.627 104 OFFCURVE",
"136 109.373 OFFCURVE",
"136 116 CURVE SMOOTH",
"136 122.627 OFFCURVE",
"130.627 128 OFFCURVE",
"124 128 CURVE SMOOTH",
"20 128 LINE SMOOTH",
"13.373 128 OFFCURVE",
"8 122.627 OFFCURVE",
"8 116 CURVE SMOOTH",
"8 64 LINE SMOOTH",
"8 57.373 OFFCURVE",
"13.373 52 OFFCURVE",
"20 52 CURVE SMOOTH",
"26.627 52 OFFCURVE",
"32 57.373 OFFCURVE",
"32 64 CURVE SMOOTH",
"32 104 LINE",
"60 104 LINE",
"60 24 LINE",
"20 24 LINE SMOOTH",
"13.373 24 OFFCURVE",
"8 18.627 OFFCURVE",
"8 12 CURVE SMOOTH",
"8 5.373 OFFCURVE",
"13.373 0 OFFCURVE",
"20 0 CURVE SMOOTH",
"124 0 LINE SMOOTH",
"130.627 0 OFFCURVE",
"136 5.373 OFFCURVE",
"136 12 CURVE SMOOTH",
"136 64 LINE SMOOTH",
"136 70.627 OFFCURVE",
"130.627 76 OFFCURVE",
"124 76 CURVE SMOOTH",
"117.373 76 OFFCURVE",
"112 70.627 OFFCURVE",
"112 64 CURVE SMOOTH"
);
}
);
width = 144;
}
);
unicode = 0058;
},
{
glyphname = Y;
lastChange = "2013-09-11 17:46:08 +0200";
layers = (
{
layerId = "940E2F63-624A-4C3D-A909-721782B4CF41";
name = Regular;
paths = (
{
closed = 1;
nodes = (
"136 116 LINE SMOOTH",
"136 122.627 OFFCURVE",
"130.627 128 OFFCURVE",
"124 128 CURVE SMOOTH",
"117.373 128 OFFCURVE",
"112 122.627 OFFCURVE",
"112 116 CURVE SMOOTH",
"112 76 LINE",
"32 76 LINE",
"32 116 LINE SMOOTH",
"32 122.627 OFFCURVE",
"26.627 128 OFFCURVE",
"20 128 CURVE SMOOTH",
"13.373 128 OFFCURVE",
"8 122.627 OFFCURVE",
"8 116 CURVE SMOOTH",
"8 64 LINE SMOOTH",
"8 57.373 OFFCURVE",
"13.373 52 OFFCURVE",
"20 52 CURVE SMOOTH",
"112 52 LINE",
"112 24 LINE",
"20 24 LINE SMOOTH",
"13.373 24 OFFCURVE",
"8 18.627 OFFCURVE",
"8 12 CURVE SMOOTH",
"8 5.373 OFFCURVE",
"13.373 0 OFFCURVE",
"20 0 CURVE SMOOTH",
"124 0 LINE SMOOTH",
"130.627 0 OFFCURVE",
"136 5.373 OFFCURVE",
"136 12 CURVE SMOOTH"
);
}
);
width = 144;
}
);
unicode = 0059;
},
{
glyphname = zero;
lastChange = "2013-09-11 17:52:45 +0200";
layers = (
{
components = (
{
name = O;
transform = "{1, 0, 0, 1, 0, 0}";
}
);
layerId = "940E2F63-624A-4C3D-A909-721782B4CF41";
name = Regular;
paths = (
{
closed = 1;
nodes = (
"78.6275 52 OFFCURVE",
"84 57.3725 OFFCURVE",
"84 64 CURVE SMOOTH",
"84 70.6275 OFFCURVE",
"78.6275 76 OFFCURVE",
"72 76 CURVE SMOOTH",
"65.3725 76 OFFCURVE",
"60 70.6275 OFFCURVE",
"60 64 CURVE SMOOTH",
"60 57.3725 OFFCURVE",
"65.3725 52 OFFCURVE",
"72 52 CURVE SMOOTH"
);
}
);
width = 144;
}
);
unicode = 0030;
},
{
glyphname = one;
lastChange = "2013-09-11 17:57:51 +0200";
layers = (
{
layerId = "940E2F63-624A-4C3D-A909-721782B4CF41";
name = Regular;
paths = (
{
closed = 1;
nodes = (
"84 24 LINE",
"84 116 LINE SMOOTH",
"84 122.627 OFFCURVE",
"78.627 128 OFFCURVE",
"72 128 CURVE SMOOTH",
"20 128 LINE SMOOTH",
"13.373 128 OFFCURVE",
"8 122.627 OFFCURVE",
"8 116 CURVE SMOOTH",
"8 109.373 OFFCURVE",
"13.373 104 OFFCURVE",
"20 104 CURVE SMOOTH",
"60 104 LINE",
"60 24 LINE",
"20 24 LINE SMOOTH",
"13.373 24 OFFCURVE",
"8 18.627 OFFCURVE",
"8 12 CURVE SMOOTH",
"8 5.373 OFFCURVE",
"13.373 0 OFFCURVE",
"20 0 CURVE SMOOTH",
"124 0 LINE SMOOTH",
"130.627 0 OFFCURVE",
"136 5.373 OFFCURVE",
"136 12 CURVE SMOOTH",
"136 18.627 OFFCURVE",
"130.627 24 OFFCURVE",
"124 24 CURVE SMOOTH"
);
}
);
width = 144;
}
);
unicode = 0031;
},
{
glyphname = four;
lastChange = "2013-09-11 18:02:49 +0200";
layers = (
{
layerId = "940E2F63-624A-4C3D-A909-721782B4CF41";
name = Regular;
paths = (
{
closed = 1;
nodes = (
"136 116 LINE SMOOTH",
"136 122.627 OFFCURVE",
"130.627 128 OFFCURVE",
"124 128 CURVE SMOOTH",
"117.373 128 OFFCURVE",
"112 122.627 OFFCURVE",
"112 116 CURVE SMOOTH",
"112 76 LINE",
"32 76 LINE",
"32 116 LINE SMOOTH",
"32 122.627 OFFCURVE",
"26.627 128 OFFCURVE",
"20 128 CURVE SMOOTH",
"13.373 128 OFFCURVE",
"8 122.627 OFFCURVE",
"8 116 CURVE SMOOTH",
"8 64 LINE SMOOTH",
"8 57.373 OFFCURVE",
"13.373 52 OFFCURVE",
"20 52 CURVE SMOOTH",
"112 52 LINE",
"112 12 LINE SMOOTH",
"112 5.373 OFFCURVE",
"117.373 0 OFFCURVE",
"124 0 CURVE SMOOTH",
"130.627 0 OFFCURVE",
"136 5.373 OFFCURVE",
"136 12 CURVE SMOOTH"
);
}
);
width = 144;
}
);
unicode = 0034;
},
{
glyphname = seven;
lastChange = "2013-09-11 18:12:44 +0200";
layers = (
{
layerId = "940E2F63-624A-4C3D-A909-721782B4CF41";
name = Regular;
paths = (
{
closed = 1;
nodes = (
"20 128 LINE SMOOTH",
"13.373 128 OFFCURVE",
"8 122.627 OFFCURVE",
"8 116 CURVE SMOOTH",
"8 109.373 OFFCURVE",
"13.373 104 OFFCURVE",
"20 104 CURVE SMOOTH",
"112 104 LINE",
"112 76 LINE",
"72 76 LINE SMOOTH",
"65.373 76 OFFCURVE",
"60 70.627 OFFCURVE",
"60 64 CURVE SMOOTH",
"60 12 LINE SMOOTH",
"60 5.373 OFFCURVE",
"65.373 0 OFFCURVE",
"72 0 CURVE SMOOTH",
"78.627 0 OFFCURVE",
"84 5.373 OFFCURVE",
"84 12 CURVE SMOOTH",
"84 52 LINE",
"124 52 LINE SMOOTH",
"130.627 52 OFFCURVE",
"136 57.373 OFFCURVE",
"136 64 CURVE SMOOTH",
"136 116 LINE SMOOTH",
"136 122.627 OFFCURVE",
"130.627 128 OFFCURVE",
"124 128 CURVE SMOOTH"
);
}
);
width = 144;
}
);
unicode = 0037;
},
{
glyphname = eight;
lastChange = "2013-09-11 17:53:31 +0200";
layers = (
{
layerId = "940E2F63-624A-4C3D-A909-721782B4CF41";
name = Regular;
paths = (
{
closed = 1;
nodes = (
"112 76 LINE",
"32 76 LINE",
"32 104 LINE",
"112 104 LINE"
);
},
{
closed = 1;
nodes = (
"112 24 LINE",
"32 24 LINE",
"32 52 LINE",
"112 52 LINE"
);
},
{
closed = 1;
nodes = (
"20 128 LINE SMOOTH",
"13.373 128 OFFCURVE",
"8 122.627 OFFCURVE",
"8 116 CURVE SMOOTH",
"8 12 LINE SMOOTH",
"8 5.373 OFFCURVE",
"13.373 0 OFFCURVE",
"20 0 CURVE SMOOTH",
"124 0 LINE SMOOTH",
"130.627 0 OFFCURVE",
"136 5.373 OFFCURVE",
"136 12 CURVE SMOOTH",
"136 116 LINE SMOOTH",
"136 122.627 OFFCURVE",
"130.627 128 OFFCURVE",
"124 128 CURVE SMOOTH"
);
}
);
width = 144;
}
);
unicode = 0038;
},
{
glyphname = asterisk;
lastChange = "2013-09-13 16:41:31 +0200";
layers = (
{
components = (
{
name = plus;
transform = "{1, 0, 0, 1, 0, 0}";
}
);
layerId = "940E2F63-624A-4C3D-A909-721782B4CF41";
name = Regular;
paths = (
{
closed = 1;
nodes = (
"26.6275 104 OFFCURVE",
"32 109.373 OFFCURVE",
"32 116 CURVE SMOOTH",
"32 122.627 OFFCURVE",
"26.6275 128 OFFCURVE",
"20 128 CURVE SMOOTH",
"13.3725 128 OFFCURVE",
"8 122.627 OFFCURVE",
"8 116 CURVE SMOOTH",
"8 109.373 OFFCURVE",
"13.3725 104 OFFCURVE",
"20 104 CURVE SMOOTH"
);
},
{
closed = 1;
nodes = (
"130.627 104 OFFCURVE",
"136 109.373 OFFCURVE",
"136 116 CURVE SMOOTH",
"136 122.627 OFFCURVE",
"130.627 128 OFFCURVE",
"124 128 CURVE SMOOTH",
"117.373 128 OFFCURVE",
"112 122.627 OFFCURVE",
"112 116 CURVE SMOOTH",
"112 109.373 OFFCURVE",
"117.373 104 OFFCURVE",
"124 104 CURVE SMOOTH"
);
},
{
closed = 1;
nodes = (
"26.6275 0 OFFCURVE",
"32 5.37252 OFFCURVE",
"32 12 CURVE SMOOTH",
"32 18.6275 OFFCURVE",
"26.6275 24 OFFCURVE",
"20 24 CURVE SMOOTH",
"13.3725 24 OFFCURVE",
"8 18.6275 OFFCURVE",
"8 12 CURVE SMOOTH",
"8 5.37252 OFFCURVE",
"13.3725 0 OFFCURVE",
"20 0 CURVE SMOOTH"
);
},
{
closed = 1;
nodes = (
"130.627 0 OFFCURVE",
"136 5.37252 OFFCURVE",
"136 12 CURVE SMOOTH",
"136 18.6275 OFFCURVE",
"130.627 24 OFFCURVE",
"124 24 CURVE SMOOTH",
"117.373 24 OFFCURVE",
"112 18.6275 OFFCURVE",
"112 12 CURVE SMOOTH",
"112 5.37252 OFFCURVE",
"117.373 0 OFFCURVE",
"124 0 CURVE SMOOTH"
);
}
);
width = 144;
}
);
unicode = 002A;
},
{
glyphname = backslash;
lastChange = "2013-09-11 17:52:31 +0200";
layers = (
{
layerId = "940E2F63-624A-4C3D-A909-721782B4CF41";
name = Regular;
paths = (
{
closed = 1;
nodes = (
"112 12 LINE SMOOTH",
"112 5.373 OFFCURVE",
"117.373 0 OFFCURVE",
"124 0 CURVE SMOOTH",
"130.627 0 OFFCURVE",
"136 5.373 OFFCURVE",
"136 12 CURVE SMOOTH",
"136 116 LINE SMOOTH",
"136 122.627 OFFCURVE",
"130.627 128 OFFCURVE",
"124 128 CURVE SMOOTH",
"117.373 128 OFFCURVE",
"112 122.627 OFFCURVE",
"112 116 CURVE SMOOTH"
);
},
{
closed = 1;
nodes = (
"84 116 LINE SMOOTH",
"84 122.627 OFFCURVE",
"78.627 128 OFFCURVE",
"72 128 CURVE SMOOTH",
"65.373 128 OFFCURVE",
"60 122.627 OFFCURVE",
"60 116 CURVE SMOOTH",
"60 12 LINE SMOOTH",
"60 5.373 OFFCURVE",
"65.373 0 OFFCURVE",
"72 0 CURVE SMOOTH",
"78.627 0 OFFCURVE",
"84 5.373 OFFCURVE",
"84 12 CURVE SMOOTH"
);
},
{
closed = 1;
nodes = (
"32 116 LINE SMOOTH",
"32 122.627 OFFCURVE",
"26.627 128 OFFCURVE",
"20 128 CURVE SMOOTH",
"13.373 128 OFFCURVE",
"8 122.627 OFFCURVE",
"8 116 CURVE SMOOTH",
"8 12 LINE SMOOTH",
"8 5.373 OFFCURVE",
"13.373 0 OFFCURVE",
"20 0 CURVE SMOOTH",
"26.627 0 OFFCURVE",
"32 5.373 OFFCURVE",
"32 12 CURVE SMOOTH"
);
}
);
width = 144;
}
);
unicode = 005C;
},
{
glyphname = bullet;
lastChange = "2013-09-11 17:52:02 +0200";
layers = (
{
layerId = "940E2F63-624A-4C3D-A909-721782B4CF41";
name = Regular;
paths = (
{
closed = 1;
nodes = (
"124 104 LINE SMOOTH",
"130.627 104 OFFCURVE",
"136 109.373 OFFCURVE",
"136 116 CURVE SMOOTH",
"136 122.627 OFFCURVE",
"130.627 128 OFFCURVE",
"124 128 CURVE SMOOTH",
"20 128 LINE SMOOTH",
"13.373 128 OFFCURVE",
"8 122.627 OFFCURVE",
"8 116 CURVE SMOOTH",
"8 109.373 OFFCURVE",
"13.373 104 OFFCURVE",
"20 104 CURVE SMOOTH"
);
},
{
closed = 1;
nodes = (
"20 76 LINE SMOOTH",
"13.373 76 OFFCURVE",
"8 70.627 OFFCURVE",
"8 64 CURVE SMOOTH",
"8 57.373 OFFCURVE",
"13.373 52 OFFCURVE",
"20 52 CURVE SMOOTH",
"123.999 52 LINE SMOOTH",
"130.627 52 OFFCURVE",
"136 57.373 OFFCURVE",
"136 64 CURVE SMOOTH",
"136 70.627 OFFCURVE",
"130.627 76 OFFCURVE",
"124 76 CURVE SMOOTH"
);
},
{
closed = 1;
nodes = (
"20 24 LINE SMOOTH",
"13.373 24 OFFCURVE",
"8 18.627 OFFCURVE",
"8 12 CURVE SMOOTH",
"8 5.373 OFFCURVE",
"13.373 0 OFFCURVE",
"20 0 CURVE SMOOTH",
"124 0 LINE SMOOTH",
"130.627 0 OFFCURVE",
"136 5.373 OFFCURVE",
"136 12 CURVE SMOOTH",
"136 18.627 OFFCURVE",
"130.627 24 OFFCURVE",
"124 24 CURVE SMOOTH"
);
}
);
width = 144;
}
);
unicode = 2022;
},
{
glyphname = comma;
lastChange = "2013-09-11 17:53:46 +0200";
layers = (
{
layerId = "940E2F63-624A-4C3D-A909-721782B4CF41";
name = Regular;
paths = (
{
closed = 1;
nodes = (
"20 128 LINE SMOOTH",
"13.373 128 OFFCURVE",
"8 122.627 OFFCURVE",
"8 116 CURVE SMOOTH",
"8 12 LINE SMOOTH",
"8 5.373 OFFCURVE",
"13.373 0 OFFCURVE",
"20 0 CURVE SMOOTH",
"124 0 LINE SMOOTH",
"130.627 0 OFFCURVE",
"136 5.373 OFFCURVE",
"136 12 CURVE SMOOTH",
"136 116 LINE SMOOTH",
"136 122.627 OFFCURVE",
"130.627 128 OFFCURVE",
"124 128 CURVE SMOOTH"
);
}
);
width = 144;
}
);
unicode = 002C;
},
{
glyphname = ellipsis;
lastChange = "2013-09-11 17:54:32 +0200";
layers = (
{
layerId = "940E2F63-624A-4C3D-A909-721782B4CF41";
name = Regular;
paths = (
{
closed = 1;
nodes = (
"26.6275 0 OFFCURVE",
"32 5.37252 OFFCURVE",
"32 12 CURVE SMOOTH",
"32 18.6275 OFFCURVE",
"26.6275 24 OFFCURVE",
"20 24 CURVE SMOOTH",
"13.3725 24 OFFCURVE",
"8 18.6275 OFFCURVE",
"8 12 CURVE SMOOTH",
"8 5.37252 OFFCURVE",
"13.3725 0 OFFCURVE",
"20 0 CURVE SMOOTH"
);
},
{
closed = 1;
nodes = (
"78.6275 0 OFFCURVE",
"84 5.37252 OFFCURVE",
"84 12 CURVE SMOOTH",
"84 18.6275 OFFCURVE",
"78.6275 24 OFFCURVE",
"72 24 CURVE SMOOTH",
"65.3725 24 OFFCURVE",
"60 18.6275 OFFCURVE",
"60 12 CURVE SMOOTH",
"60 5.37252 OFFCURVE",
"65.3725 0 OFFCURVE",
"72 0 CURVE SMOOTH"
);
},
{
closed = 1;
nodes = (
"130.627 0 OFFCURVE",
"136 5.37252 OFFCURVE",
"136 12 CURVE SMOOTH",
"136 18.6275 OFFCURVE",
"130.627 24 OFFCURVE",
"124 24 CURVE SMOOTH",
"117.373 24 OFFCURVE",
"112 18.6275 OFFCURVE",
"112 12 CURVE SMOOTH",
"112 5.37252 OFFCURVE",
"117.373 0 OFFCURVE",
"124 0 CURVE SMOOTH"
);
},
{
closed = 1;
nodes = (
"124 104 LINE SMOOTH",
"130.627 104 OFFCURVE",
"136 109.373 OFFCURVE",
"136 116 CURVE SMOOTH",
"136 122.627 OFFCURVE",
"130.627 128 OFFCURVE",
"124 128 CURVE SMOOTH",
"20 128 LINE SMOOTH",
"13.373 128 OFFCURVE",
"8 122.627 OFFCURVE",
"8 116 CURVE SMOOTH",
"8 109.373 OFFCURVE",
"13.373 104 OFFCURVE",
"20 104 CURVE SMOOTH"
);
},
{
closed = 1;
nodes = (
"20 76 LINE SMOOTH",
"13.373 76 OFFCURVE",
"8 70.627 OFFCURVE",
"8 64 CURVE SMOOTH",
"8 57.373 OFFCURVE",
"13.373 52 OFFCURVE",
"20 52 CURVE SMOOTH",
"123.999 52 LINE SMOOTH",
"130.627 52 OFFCURVE",
"136 57.373 OFFCURVE",
"136 64 CURVE SMOOTH",
"136 70.627 OFFCURVE",
"130.627 76 OFFCURVE",
"124 76 CURVE SMOOTH"
);
}
);
width = 144;
}
);
unicode = 2026;
},
{
glyphname = exclam;
lastChange = "2013-09-13 16:42:32 +0200";
layers = (
{
layerId = "940E2F63-624A-4C3D-A909-721782B4CF41";
name = Regular;
paths = (
{
closed = 1;
nodes = (
"8 64 LINE SMOOTH",
"8 57.373 OFFCURVE",
"13.373 52 OFFCURVE",
"20 52 CURVE SMOOTH",
"26.627 52 OFFCURVE",
"32 57.373 OFFCURVE",
"32 64 CURVE SMOOTH",
"32 116 LINE SMOOTH",
"32 122.627 OFFCURVE",
"26.627 128 OFFCURVE",
"20 128 CURVE SMOOTH",
"13.373 128 OFFCURVE",
"8 122.627 OFFCURVE",
"8 116 CURVE SMOOTH"
);
},
{
closed = 1;
nodes = (
"60 64 LINE SMOOTH",
"60 57.373 OFFCURVE",
"65.373 52 OFFCURVE",
"72 52 CURVE SMOOTH",
"78.627 52 OFFCURVE",
"84 57.373 OFFCURVE",
"84 64 CURVE SMOOTH",
"84 116 LINE SMOOTH",
"84 122.627 OFFCURVE",
"78.627 128 OFFCURVE",
"72 128 CURVE SMOOTH",
"65.373 128 OFFCURVE",
"60 122.627 OFFCURVE",
"60 116 CURVE SMOOTH"
);
},
{
closed = 1;
nodes = (
"136 116 LINE SMOOTH",
"136 122.627 OFFCURVE",
"130.627 128 OFFCURVE",
"124 128 CURVE SMOOTH",
"117.373 128 OFFCURVE",
"112 122.627 OFFCURVE",
"112 116 CURVE SMOOTH",
"112 64 LINE SMOOTH",
"112 57.373 OFFCURVE",
"117.373 52 OFFCURVE",
"124 52 CURVE SMOOTH",
"130.627 52 OFFCURVE",
"136 57.373 OFFCURVE",
"136 64 CURVE SMOOTH"
);
},
{
closed = 1;
nodes = (
"13.373 24 OFFCURVE",
"8 18.627 OFFCURVE",
"8 12 CURVE SMOOTH",
"8 5.373 OFFCURVE",
"13.373 0 OFFCURVE",
"20 0 CURVE SMOOTH",
"26.627 0 OFFCURVE",
"32 5.373 OFFCURVE",
"32 12 CURVE SMOOTH",
"32 18.627 OFFCURVE",
"26.627 24 OFFCURVE",
"20 24 CURVE SMOOTH"
);
},
{
closed = 1;
nodes = (
"65.373 24 OFFCURVE",
"60 18.627 OFFCURVE",
"60 12 CURVE SMOOTH",
"60 5.373 OFFCURVE",
"65.373 0 OFFCURVE",
"72 0 CURVE SMOOTH",
"78.627 0 OFFCURVE",
"84 5.373 OFFCURVE",
"84 12 CURVE SMOOTH",
"84 18.627 OFFCURVE",
"78.627 24 OFFCURVE",
"72 24 CURVE SMOOTH"
);
},
{
closed = 1;
nodes = (
"117.373 24 OFFCURVE",
"112 18.627 OFFCURVE",
"112 12 CURVE SMOOTH",
"112 5.373 OFFCURVE",
"117.373 0 OFFCURVE",
"124 0 CURVE SMOOTH",
"130.627 0 OFFCURVE",
"136 5.373 OFFCURVE",
"136 12 CURVE SMOOTH",
"136 18.627 OFFCURVE",
"130.627 24 OFFCURVE",
"124 24 CURVE SMOOTH"
);
}
);
width = 144;
}
);
unicode = 0021;
},
{
glyphname = numbersign;
lastChange = "2013-09-11 17:53:51 +0200";
layers = (
{
layerId = "940E2F63-624A-4C3D-A909-721782B4CF41";
name = Regular;
paths = (
{
closed = 1;
nodes = (
"32 104 LINE",
"60 104 LINE",
"60 76 LINE",
"32 76 LINE"
);
},
{
closed = 1;
nodes = (
"112 76 LINE",
"84 76 LINE",
"84 104 LINE",
"112 104 LINE"
);
},
{
closed = 1;
nodes = (
"32 24 LINE",
"32 52 LINE",
"60 52 LINE",
"60 24 LINE"
);
},
{
closed = 1;
nodes = (
"112 24 LINE",
"84 24 LINE",
"84 52 LINE",
"112 52 LINE"
);
},
{
closed = 1;
nodes = (
"20 128 LINE SMOOTH",
"13.373 128 OFFCURVE",
"8 122.627 OFFCURVE",
"8 116 CURVE SMOOTH",
"8 12 LINE SMOOTH",
"8 5.373 OFFCURVE",
"13.373 0 OFFCURVE",
"20 0 CURVE SMOOTH",
"124 0 LINE SMOOTH",
"130.627 0 OFFCURVE",
"136 5.373 OFFCURVE",
"136 12 CURVE SMOOTH",
"136 116 LINE SMOOTH",
"136 122.627 OFFCURVE",
"130.627 128 OFFCURVE",
"124 128 CURVE SMOOTH"
);
}
);
width = 144;
}
);
unicode = 0023;
},
{
glyphname = question;
lastChange = "2013-09-13 16:43:47 +0200";
layers = (
{
layerId = "940E2F63-624A-4C3D-A909-721782B4CF41";
name = Regular;
paths = (
{
closed = 1;
nodes = (
"124 128 LINE",
"20 128 LINE",
"20 104 LINE",
"112 104 LINE",
"112 76 LINE",
"72 76 LINE",
"72 52 LINE",
"124 52 LINE",
"136 64 LINE",
"136 116 LINE"
);
},
{
closed = 1;
nodes = (
"26.6275 104 OFFCURVE",
"32 109.373 OFFCURVE",
"32 116 CURVE SMOOTH",
"32 122.627 OFFCURVE",
"26.6275 128 OFFCURVE",
"20 128 CURVE SMOOTH",
"13.3725 128 OFFCURVE",
"8 122.627 OFFCURVE",
"8 116 CURVE SMOOTH",
"8 109.373 OFFCURVE",
"13.3725 104 OFFCURVE",
"20 104 CURVE SMOOTH"
);
},
{
closed = 1;
nodes = (
"130.627 104 OFFCURVE",
"136 109.373 OFFCURVE",
"136 116 CURVE SMOOTH",
"136 122.627 OFFCURVE",
"130.627 128 OFFCURVE",
"124 128 CURVE SMOOTH",
"117.373 128 OFFCURVE",
"112 122.627 OFFCURVE",
"112 116 CURVE SMOOTH",
"112 109.373 OFFCURVE",
"117.373 104 OFFCURVE",
"124 104 CURVE SMOOTH"
);
},
{
closed = 1;
nodes = (
"130.627 52 OFFCURVE",
"136 57.3725 OFFCURVE",
"136 64 CURVE SMOOTH",
"136 70.6275 OFFCURVE",
"130.627 76 OFFCURVE",
"124 76 CURVE SMOOTH",
"117.373 76 OFFCURVE",
"112 70.6275 OFFCURVE",
"112 64 CURVE SMOOTH",
"112 57.3725 OFFCURVE",
"117.373 52 OFFCURVE",
"124 52 CURVE SMOOTH"
);
},
{
closed = 1;
nodes = (
"78.6275 52 OFFCURVE",
"84 57.3725 OFFCURVE",
"84 64 CURVE",
"84 70.6275 OFFCURVE",
"78.6275 76 OFFCURVE",
"72 76 CURVE",
"65.3725 76 OFFCURVE",
"60 70.6275 OFFCURVE",
"60 64 CURVE",
"60 57.3725 OFFCURVE",
"65.3725 52 OFFCURVE",
"72 52 CURVE"
);
},
{
closed = 1;
nodes = (
"78.6275 0 OFFCURVE",
"84 5.37252 OFFCURVE",
"84 12 CURVE SMOOTH",
"84 18.6275 OFFCURVE",
"78.6275 24 OFFCURVE",
"72 24 CURVE SMOOTH",
"65.3725 24 OFFCURVE",
"60 18.6275 OFFCURVE",
"60 12 CURVE SMOOTH",
"60 5.37252 OFFCURVE",
"65.3725 0 OFFCURVE",
"72 0 CURVE SMOOTH"
);
}
);
width = 144;
}
);
unicode = 003F;
},
{
glyphname = braceleft;
lastChange = "2013-09-13 16:45:01 +0200";
layers = (
{
layerId = "940E2F63-624A-4C3D-A909-721782B4CF41";
name = Regular;
paths = (
{
closed = 1;
nodes = (
"84 24 LINE",
"84 104 LINE",
"124 104 LINE SMOOTH",
"130.627 104 OFFCURVE",
"136 109.373 OFFCURVE",
"136 116 CURVE SMOOTH",
"136 122.627 OFFCURVE",
"130.627 128 OFFCURVE",
"124 128 CURVE SMOOTH",
"72 128 LINE SMOOTH",
"65.373 128 OFFCURVE",
"60 122.627 OFFCURVE",
"60 116 CURVE SMOOTH",
"60 76 LINE",
"20 76 LINE SMOOTH",
"13.373 76 OFFCURVE",
"8 70.627 OFFCURVE",
"8 64 CURVE SMOOTH",
"8 57.373 OFFCURVE",
"13.373 52 OFFCURVE",
"20 52 CURVE SMOOTH",
"60 52 LINE",
"60 12 LINE SMOOTH",
"60 5.373 OFFCURVE",
"65.373 0 OFFCURVE",
"72 0 CURVE SMOOTH",
"124 0 LINE SMOOTH",
"130.627 0 OFFCURVE",
"136 5.373 OFFCURVE",
"136 12 CURVE SMOOTH",
"136 18.627 OFFCURVE",
"130.627 24 OFFCURVE",
"124 24 CURVE SMOOTH"
);
}
);
width = 144;
}
);
unicode = 007B;
},
{
glyphname = divide;
lastChange = "2013-09-13 16:46:25 +0200";
layers = (
{
components = (
{
name = minus;
transform = "{1, 0, 0, 1, 0, 0}";
}
);
layerId = "940E2F63-624A-4C3D-A909-721782B4CF41";
name = Regular;
paths = (
{
closed = 1;
nodes = (
"78.6275 104 OFFCURVE",
"84 109.373 OFFCURVE",
"84 116 CURVE SMOOTH",
"84 122.627 OFFCURVE",
"78.6275 128 OFFCURVE",
"72 128 CURVE SMOOTH",
"65.3725 128 OFFCURVE",
"60 122.627 OFFCURVE",
"60 116 CURVE SMOOTH",
"60 109.373 OFFCURVE",
"65.3725 104 OFFCURVE",
"72 104 CURVE SMOOTH"
);
},
{
closed = 1;
nodes = (
"78.6275 0 OFFCURVE",
"84 5.37252 OFFCURVE",
"84 12 CURVE SMOOTH",
"84 18.6275 OFFCURVE",
"78.6275 24 OFFCURVE",
"72 24 CURVE SMOOTH",
"65.3725 24 OFFCURVE",
"60 18.6275 OFFCURVE",
"60 12 CURVE SMOOTH",
"60 5.37252 OFFCURVE",
"65.3725 0 OFFCURVE",
"72 0 CURVE SMOOTH"
);
}
);
width = 144;
}
);
unicode = 00F7;
},
{
glyphname = minus;
lastChange = "2013-09-11 17:54:51 +0200";
layers = (
{
layerId = "940E2F63-624A-4C3D-A909-721782B4CF41";
name = Regular;
paths = (
{
closed = 1;
nodes = (
"20 76 LINE SMOOTH",
"13.373 76 OFFCURVE",
"8 70.627 OFFCURVE",
"8 64 CURVE SMOOTH",
"8 57.373 OFFCURVE",
"13.373 52 OFFCURVE",
"20 52 CURVE SMOOTH",
"123.999 52 LINE SMOOTH",
"130.627 52 OFFCURVE",
"136 57.373 OFFCURVE",
"136 64 CURVE SMOOTH",
"136 70.627 OFFCURVE",
"130.627 76 OFFCURVE",
"124 76 CURVE SMOOTH"
);
}
);
width = 144;
}
);
unicode = 2212;
},
{
glyphname = plus;
lastChange = "2013-09-11 17:55:13 +0200";
layers = (
{
layerId = "940E2F63-624A-4C3D-A909-721782B4CF41";
name = Regular;
paths = (
{
closed = 1;
nodes = (
"84 76 LINE",
"84 116 LINE SMOOTH",
"84 122.627 OFFCURVE",
"78.627 128 OFFCURVE",
"72 128 CURVE SMOOTH",
"65.373 128 OFFCURVE",
"60 122.627 OFFCURVE",
"60 116 CURVE SMOOTH",
"60 76 LINE",
"20 76 LINE SMOOTH",
"13.373 76 OFFCURVE",
"8 70.627 OFFCURVE",
"8 64 CURVE SMOOTH",
"8 57.373 OFFCURVE",
"13.373 52 OFFCURVE",
"20 52 CURVE SMOOTH",
"60 52 LINE",
"60 12 LINE SMOOTH",
"60 5.373 OFFCURVE",
"65.373 0 OFFCURVE",
"72 0 CURVE SMOOTH",
"78.627 0 OFFCURVE",
"84 5.373 OFFCURVE",
"84 12 CURVE SMOOTH",
"84 52 LINE",
"124 52 LINE SMOOTH",
"130.628 52 OFFCURVE",
"136 57.373 OFFCURVE",
"136 64 CURVE SMOOTH",
"136 70.627 OFFCURVE",
"130.628 76 OFFCURVE",
"124 76 CURVE SMOOTH"
);
}
);
width = 144;
}
);
unicode = 002B;
},
{
glyphname = ampersand;
lastChange = "2013-09-13 16:47:34 +0200";
layers = (
{
layerId = "940E2F63-624A-4C3D-A909-721782B4CF41";
name = Regular;
paths = (
{
closed = 1;
nodes = (
"124 128 LINE",
"72 128 LINE",
"60 116 LINE",
"60 76 LINE",
"20 76 LINE",
"8 64 LINE",
"8 12 LINE",
"20 0 LINE",
"124 0 LINE",
"124 24 LINE",
"32 24 LINE",
"32 52 LINE",
"124 52 LINE",
"136 64 LINE",
"136 116 LINE"
);
},
{
closed = 1;
nodes = (
"112 76 LINE",
"84 76 LINE",
"84 104 LINE",
"112 104 LINE"
);
},
{
closed = 1;
nodes = (
"78.6275 104 OFFCURVE",
"84 109.373 OFFCURVE",
"84 116 CURVE SMOOTH",
"84 122.627 OFFCURVE",
"78.6275 128 OFFCURVE",
"72 128 CURVE SMOOTH",
"65.3725 128 OFFCURVE",
"60 122.627 OFFCURVE",
"60 116 CURVE SMOOTH",
"60 109.373 OFFCURVE",
"65.3725 104 OFFCURVE",
"72 104 CURVE SMOOTH"
);
},
{
closed = 1;
nodes = (
"130.627 104 OFFCURVE",
"136 109.373 OFFCURVE",
"136 116 CURVE SMOOTH",
"136 122.627 OFFCURVE",
"130.627 128 OFFCURVE",
"124 128 CURVE SMOOTH",
"117.373 128 OFFCURVE",
"112 122.627 OFFCURVE",
"112 116 CURVE SMOOTH",
"112 109.373 OFFCURVE",
"117.373 104 OFFCURVE",
"124 104 CURVE SMOOTH"
);
},
{
closed = 1;
nodes = (
"130.627 52 OFFCURVE",
"136 57.3725 OFFCURVE",
"136 64 CURVE SMOOTH",
"136 70.6275 OFFCURVE",
"130.627 76 OFFCURVE",
"124 76 CURVE SMOOTH",
"117.373 76 OFFCURVE",
"112 70.6275 OFFCURVE",
"112 64 CURVE SMOOTH",
"112 57.3725 OFFCURVE",
"117.373 52 OFFCURVE",
"124 52 CURVE SMOOTH"
);
},
{
closed = 1;
nodes = (
"26.6275 52 OFFCURVE",
"32 57.3725 OFFCURVE",
"32 64 CURVE SMOOTH",
"32 70.6275 OFFCURVE",
"26.6275 76 OFFCURVE",
"20 76 CURVE SMOOTH",
"13.3725 76 OFFCURVE",
"8 70.6275 OFFCURVE",
"8 64 CURVE SMOOTH",
"8 57.3725 OFFCURVE",
"13.3725 52 OFFCURVE",
"20 52 CURVE SMOOTH"
);
},
{
closed = 1;
nodes = (
"26.6275 0 OFFCURVE",
"32 5.37252 OFFCURVE",
"32 12 CURVE SMOOTH",
"32 18.6275 OFFCURVE",
"26.6275 24 OFFCURVE",
"20 24 CURVE SMOOTH",
"13.3725 24 OFFCURVE",
"8 18.6275 OFFCURVE",
"8 12 CURVE SMOOTH",
"8 5.37252 OFFCURVE",
"13.3725 0 OFFCURVE",
"20 0 CURVE SMOOTH"
);
},
{
closed = 1;
nodes = (
"130.627 0 OFFCURVE",
"136 5.37252 OFFCURVE",
"136 12 CURVE SMOOTH",
"136 18.6275 OFFCURVE",
"130.627 24 OFFCURVE",
"124 24 CURVE SMOOTH",
"117.373 24 OFFCURVE",
"112 18.6275 OFFCURVE",
"112 12 CURVE SMOOTH",
"112 5.37252 OFFCURVE",
"117.373 0 OFFCURVE",
"124 0 CURVE SMOOTH"
);
}
);
width = 144;
}
);
unicode = 0026;
},
{
glyphname = degree;
lastChange = "2013-09-13 16:51:14 +0200";
layers = (
{
layerId = "940E2F63-624A-4C3D-A909-721782B4CF41";
name = Regular;
paths = (
{
closed = 1;
nodes = (
"84 116 LINE SMOOTH",
"84 122.627 OFFCURVE",
"78.627 128 OFFCURVE",
"72 128 CURVE SMOOTH",
"20 128 LINE SMOOTH",
"13.373 128 OFFCURVE",
"8 122.627 OFFCURVE",
"8 116 CURVE SMOOTH",
"8 64 LINE SMOOTH",
"8 57.373 OFFCURVE",
"13.373 52 OFFCURVE",
"20 52 CURVE SMOOTH",
"72 52 LINE SMOOTH",
"78.627 52 OFFCURVE",
"84 57.373 OFFCURVE",
"84 64 CURVE SMOOTH"
);
},
{
closed = 1;
nodes = (
"60 76 LINE",
"32 76 LINE",
"32 104 LINE",
"60 104 LINE"
);
},
{
closed = 1;
nodes = (
"136 64 LINE SMOOTH",
"136 70.627 OFFCURVE",
"130.627 76 OFFCURVE",
"124 76 CURVE SMOOTH",
"117.373 76 OFFCURVE",
"112 70.627 OFFCURVE",
"112 64 CURVE SMOOTH",
"112 24 LINE",
"72 24 LINE SMOOTH",
"65.373 24 OFFCURVE",
"60 18.627 OFFCURVE",
"60 12 CURVE SMOOTH",
"60 5.373 OFFCURVE",
"65.373 0 OFFCURVE",
"72 0 CURVE SMOOTH",
"124 0 LINE SMOOTH",
"130.627 0 OFFCURVE",
"136 5.373 OFFCURVE",
"136 12 CURVE SMOOTH"
);
}
